# xmcd
#
# Track frame offsets:
# 150
# 27527
# 48429
# 60423
# 87597
# 102677
# 126794
# 147777
# 169535
# 191734
# 218833
# 238372
#
# Disc length: 3463 seconds
#
#
# Revision: 0
# Processed by: cddbd v1.5PL3 Copyright (c) Steve Scherf et al.
# Submitted via: FreeRIP 2.53 
#
DISCID=b30d850c
DTITLE=Harpdog Brown and The Bloodhounds - One In A Howlin' Moon
DYEAR=1994
DGENRE=Blues
TTITLE0=Relaxin'
TTITLE1=Everything's Gonna Be Alright
TTITLE2=Soul Survivor
TTITLE3=9 Below Zero
TTITLE4=Flip Flop Bop
TTITLE5=Blue Light
TTITLE6=Pink Champagne
TTITLE7=Next Time You See Me
TTITLE8=How Come
TTITLE9=Evenin'
TTITLE10=Baby What You Want Me To Do
TTITLE11=Farmer John
EXTD=BluesfestRadio com
EXTT0=
EXTT1=
EXTT2=
EXTT3=
EXTT4=
EXTT5=
EXTT6=
EXTT7=
EXTT8=
EXTT9=
EXTT10=
EXTT11=
PLAYORDER=
